{"accessors" : [{"bufferView" : 0, "byteOffset" : 0, "componentType" : 5123, "count" : 1056, "type" : "SCALAR", "max" : [1055], "min" : [0]}, {"bufferView" : 1, "byteOffset" : 0, "componentType" : 5126, "count" : 1056, "type" : "VEC3", "max" : [25319.091796875, 25323.091796875, 25327.091796875], "min" : [-0.9081640243530273, 3.0918359756469727, 7.091835975646973]}, {"bufferView" : 1, "byteOffset" : 12, "componentType" : 5126, "count" : 1056, "type" : "VEC3", "max" : [25331.091796875, 25335.091796875, 25339.091796875], "min" : [11.091835975646973, 15.091835975646973, 19.091835021972656]}], "asset" : {"generator" : "Aspose.3D 20.8", "version" : "2.0"}, "buffers" : [{"uri" : "buffer.bin", "byteLength" : 27464}], "bufferViews" : [{"buffer" : 0, "byteOffset" : 0, "byteLength" : 2112, "target" : 34963}, {"buffer" : 0, "byteOffset" : 2116, "byteLength" : 25344, "byteStride" : 24, "target" : 34962}], "materials" : [{"pbrMetallicRoughness" : {"baseColorFactor" : [0, 0, 0, 1], "metallicFactor" : 0, "roughnessFactor" : 0}, "emissiveFactor" : [0, 0, 0], "alphaMode" : "OPAQUE", "doubleSided" : false}], "meshes" : [{"primitives" : [{"attributes" : {"POSITION" : 1, "NORMAL" : 2}, "indices" : 0, "material" : 0, "mode" : 4}]}], "nodes" : [{"matrix" : [-0.44999998807906616, -4.838916331044724E-22, 6.794810779401649E-08, 0, -2.2140302109663265E-14, 0.4499999880790472, -1.4662859336520796E-07, 0, -6.79481077940129E-08, -1.4662859336520963E-07, -0.4499999880790423, 0, 0, -8.960635682342399E-07, -5.5, 1], "mesh" : 0, "name" : "Glasses_01_Plane.000"}, {"children" : [0], "matrix" : [1, 0, 0, 0, 0, 0.9999999999999867, 1.6292067073209108E-07, 0, 0, -1.6292067073209108E-07, 0.9999999999999867, 0, 0, 0, 0, 1], "name" : "asset"}], "scene" : 0, "scenes" : [{"nodes" : [1]}]}